<svg width="122" height="125" viewBox="0 0 122 125" fill="none" xmlns="http://www.w3.org/2000/svg">
<path d="M77.0922 98.521C95.2582 96.503 112.385 86.823 121.815 70.667C117.349 110.628 73.6532 135.885 37.986 120.378C34.6994 118.953 31.8704 116.582 29.929 113.534C21.9136 100.948 19.2788 84.933 23.0646 70.399C33.8812 89.067 55.875 100.51 77.0922 98.521Z" fill="#F3B01C"/>
<path d="M22.4012 58.6735C15.0375 75.691 14.7186 95.614 23.7463 112.01C-8.02407 88.108 -7.67737 36.9578 23.358 13.2949C26.2286 11.1078 29.64 9.80966 33.2178 9.61206C47.9312 8.83596 62.8804 14.5225 73.364 25.1193C52.0637 25.331 31.318 38.9756 22.4012 58.6735Z" fill="#8D2676"/>
<path d="M83.637 30.3552C72.89 15.3701 56.0686 5.16837 37.6387 4.85796C73.264 -11.3124 117.085 14.9045 121.856 53.6654C122.3 57.2635 121.717 60.9322 120.122 64.1775C113.466 77.695 101.124 88.179 86.702 92.059C97.269 72.46 95.965 48.5151 83.637 30.3552Z" fill="#EE342F"/>
</svg>
